<svg xmlns="http://www.w3.org/2000/svg" viewBox="0 0 6831.5 6831.5">
<rect x="0" y="0" width="6831.5" height="6831.5" rx="1502.9" fill="#F4F0E8"/>
<g transform="translate(1394.4,4115.8) scale(1,-1)" fill="#18294A"><path d="M842.5970458984375 520.5906982421875 820.5972900390625 484.5914306640625 1141.20263671875 1368.400634765625Q1148.0025634765625 1388.4002685546875 1154.3024291992188 1394.2001342773438Q1160.602294921875 1400.0 1172.402099609375 1400.0H1508.394775390625Q1512.5947265625 1400.0 1514.9946899414062 1398.1000366210938Q1517.3946533203125 1396.2000732421875 1517.3946533203125 1393.60009765625Q1517.3946533203125 1390.8001708984375 1514.6947021484375 1389.0001831054688Q1511.9947509765625 1387.2001953125 1505.994873046875 1386.000244140625L1420.9930419921875 1372.800048828125Q1403.5933837890625 1370.0001220703125 1395.4935302734375 1356.7003784179688Q1387.3936767578125 1343.400634765625 1388.5936279296875 1321.60107421875L1477.59375 71.59912109375Q1479.59375 46.9996337890625 1485.7936401367188 38.5997314453125Q1491.9935302734375 30.1998291015625 1512.793212890625 26.39990234375L1592.9947509765625 13.999755859375Q1598.99462890625 13.3997802734375 1601.694580078125 11.7998046875Q1604.39453125 10.1998291015625 1604.39453125 6.39990234375Q1604.39453125 4.199951171875 1601.9945678710938 2.0999755859375Q1599.5946044921875 0.0 1595.3946533203125 0.0H1077.4017333984375Q1072.601806640625 0.0 1070.2018432617188 2.0999755859375Q1067.8018798828125 4.199951171875 1067.8018798828125 6.39990234375Q1067.8018798828125 10.1998291015625 1070.5018310546875 11.7998046875Q1073.2017822265625 13.3997802734375 1079.8016357421875 13.999755859375L1159.4031982421875 26.39990234375Q1181.0029296875 30.1998291015625 1189.3028564453125 39.7996826171875Q1197.602783203125 49.3995361328125 1196.40283203125 71.9990234375L1111.8026123046875 1262.802001953125L1128.40234375 1276.001220703125L729.0008544921875 137.60400390625Q723.6009521484375 121.6043701171875 718.9010620117188 117.20440673828125Q714.201171875 112.804443359375 710.001220703125 112.804443359375Q707.4012451171875 112.804443359375 704.4013061523438 115.10443115234375Q701.4013671875 117.4044189453125 698.4014282226562 122.8043212890625Q695.4014892578125 128.2042236328125 691.6015625 137.60400390625L253.0006103515625 1257.20166015625L267.0003662109375 1284.401123046875L186.000732421875 145.3975830078125Q183.2008056640625 103.598388671875 212.099853515625 73.4991455078125Q240.9989013671875 43.39990234375 290.1976318359375 29.600341796875L372.6014404296875 13.999755859375Q378.0013427734375 12.7998046875 380.20135498046875 11.1998291015625Q382.4013671875 9.599853515625 382.4013671875 6.39990234375Q382.4013671875 4.199951171875 380.60137939453125 2.0999755859375Q378.8013916015625 0.0 374.6014404296875 0.0H-3.3988037109375Q-7.5987548828125 0.0 -9.69873046875 2.0999755859375Q-11.7987060546875 4.199951171875 -11.7987060546875 6.39990234375Q-11.7987060546875 10.1998291015625 -8.5987548828125 11.59979248046875Q-5.3988037109375 12.999755859375 -1.3988037109375 13.999755859375L58.003662109375 28.80029296875Q102.6029052734375 42.0 132.7020263671875 72.19921875Q162.8011474609375 102.3984375 166.2010498046875 147.7974853515625L244.40087890625 1241.8038330078125Q250.000732421875 1303.201904296875 242.4007568359375 1335.6010131835938Q234.80078125 1368.0001220703125 209.0010986328125 1372.0L135.7999267578125 1382.800048828125Q125.1998291015625 1384.800048828125 120.0997314453125 1386.4000244140625Q114.9996337890625 1388.0 114.9996337890625 1392.0Q114.9996337890625 1400.0 130.1998291015625 1400.0H473.592041015625Q483.7919921875 1400.0 490.2918701171875 1394.60009765625Q496.791748046875 1389.2001953125 502.5916748046875 1373.600341796875Z M2518.396728515625 1393.60009765625Q2518.396728515625 1396.2000732421875 2520.4967041015625 1398.1000366210938Q2522.5966796875 1400.0 2525.99658203125 1400.0H2852.3955078125Q2856.1954345703125 1400.0 2858.0953979492188 1398.1000366210938Q2859.995361328125 1396.2000732421875 2859.995361328125 1393.60009765625Q2859.995361328125 1390.8001708984375 2857.79541015625 1389.2001953125Q2855.595458984375 1387.6002197265625 2851.195556640625 1386.000244140625L2813.594482421875 1374.0Q2776.9951171875 1360.2003173828125 2745.4959106445312 1323.2011108398438Q2713.9967041015625 1286.201904296875 2694.9969482421875 1220.802978515625L2371.99365234375 142.9967041015625Q2367.393798828125 124.5972900390625 2365.893798828125 107.79766845703125Q2364.393798828125 90.998046875 2364.393798828125 71.598388671875V11.199951171875Q2364.393798828125 6.0 2362.5938110351562 3.0Q2360.7938232421875 0.0 2355.19384765625 0.0H2107.202392578125Q2102.00244140625 0.0 2099.4024658203125 3.0Q2096.802490234375 6.0 2096.802490234375 11.199951171875V70.9984130859375Q2096.802490234375 83.79833984375 2092.8026123046875 99.89794921875Q2088.802734375 115.99755859375 2082.40283203125 135.59716796875L1703.200927734375 1332.400634765625Q1697.0009765625 1351.00048828125 1691.2010498046875 1359.900390625Q1685.401123046875 1368.80029296875 1674.401123046875 1372.000244140625L1628.0 1384.80029296875Q1616.000244140625 1389.8001708984375 1616.000244140625 1393.60009765625Q1616.000244140625 1396.2000732421875 1618.4002075195312 1398.1000366210938Q1620.8001708984375 1400.0 1624.800048828125 1400.0H2113.7940673828125Q2118.1939697265625 1400.0 2120.3939208984375 1398.1000366210938Q2122.5938720703125 1396.2000732421875 2122.5938720703125 1393.60009765625Q2122.5938720703125 1390.8001708984375 2119.6939086914062 1389.3001708984375Q2116.7939453125 1387.8001708984375 2110.5941162109375 1386.000244140625L2028.5911865234375 1374.400146484375Q2005.79150390625 1369.2003173828125 2000.6915283203125 1357.0004272460938Q1995.591552734375 1344.800537109375 2002.5914306640625 1321.200927734375L2364.7938232421875 154.3966064453125L2336.39404296875 88.797119140625L2675.197265625 1218.403076171875Q2691.3970947265625 1273.8023681640625 2672.597412109375 1316.1014404296875Q2653.7977294921875 1358.4005126953125 2579.99853515625 1376.800048828125L2527.99658203125 1386.000244140625Q2522.5966796875 1387.6002197265625 2520.4967041015625 1389.2001953125Q2518.396728515625 1390.8001708984375 2518.396728515625 1393.60009765625Z M4054.592529296875 872.4013671875Q4054.592529296875 737.0013427734375 3992.1927490234375 637.1012573242188Q3929.79296875 537.201171875 3819.193359375 482.60107421875Q3708.59375 428.0009765625 3563.794189453125 428.0009765625Q3453.795654296875 428.0009765625 3372.6954956054688 452.80078125Q3291.5953369140625 477.6005859375 3224.195068359375 527.8006591796875L3228.195068359375 542.000244140625Q3274.195068359375 510.000244140625 3316.4955444335938 491.10028076171875Q3358.7960205078125 472.2003173828125 3399.3965454101562 464.30035400390625Q3439.9970703125 456.400390625 3479.197265625 456.400390625Q3564.598876953125 456.400390625 3632.5997314453125 506.00079345703125Q3700.6005859375 555.6011962890625 3740.8009033203125 650.00146484375Q3781.001220703125 744.4017333984375 3781.001220703125 878.2012939453125Q3781.001220703125 1039.6007080078125 3731.2005615234375 1151.9005126953125Q3681.39990234375 1264.2003173828125 3595.1985473632812 1322.9003295898438Q3508.9971923828125 1381.600341796875 3400.195068359375 1381.600341796875H3314.9921875V54.9996337890625Q3314.9921875 43.3997802734375 3323.8920288085938 36.99981689453125Q3332.7918701171875 30.599853515625 3350.9915771484375 26.7999267578125L3436.9931640625 13.3997802734375Q3441.7930908203125 12.3997802734375 3444.1930541992188 10.99981689453125Q3446.593017578125 9.599853515625 3446.593017578125 6.39990234375Q3446.593017578125 3.7999267578125 3444.4930419921875 1.89996337890625Q3442.39306640625 0.0 3437.5931396484375 0.0H2913.4002685546875Q2908.600341796875 0.0 2906.0003662109375 1.89996337890625Q2903.400390625 3.7999267578125 2903.400390625 6.9998779296875Q2903.400390625 11.7998046875 2914.2001953125 13.999755859375L3000.4017333984375 27.39990234375Q3018.4014892578125 30.599853515625 3026.7013549804688 37.2998046875Q3035.001220703125 43.999755859375 3035.001220703125 53.5997314453125V1342.200439453125Q3035.001220703125 1354.2003173828125 3026.9013671875 1362.000244140625Q3018.801513671875 1369.8001708984375 3002.2017822265625 1372.60009765625L2912.000244140625 1386.6002197265625Q2903.400390625 1387.8001708984375 2903.400390625 1393.0001220703125Q2903.400390625 1396.800048828125 2905.7003784179688 1398.4000244140625Q2908.0003662109375 1400.0 2912.80029296875 1400.0H3400.195068359375Q3595.1942138671875 1400.0 3742.49365234375 1334.2001953125Q3889.7930908203125 1268.400390625 3972.1928100585938 1149.6007080078125Q4054.592529296875 1030.801025390625 4054.592529296875 872.4013671875Z"/></g>
</svg>